<svg xmlns="http://www.w3.org/2000/svg" viewBox="214.6668 713.332 1672 684" version="1.1" style="max-height: 500px" width="1672" height="684">
<path fill="#131327" d="m0 0h2e3v2e3h-2e3z" transform="translate(0)"/>
<path fill="#fff" d="m0 0h47l16 1 16 4 15 8 11 10 7 11 5 11 3 13v22l-4 16-7 14-11 12-14 9-14 5-15 2h-55l-1-1v-136z" transform="translate(1201,814)"/>
<path fill="#fff" d="m0 0h31l3 4 15 43 26 72 6 16-1 3h-28l-2-2-7-22v-2l-55 1-8 24-1 1h-28l-1-3 6-16 16-45 23-64 4-9z" transform="translate(1270,1038)"/>
<path fill="#fff" d="m0 0h31l3 5 19 53 18 50 10 27-1 3h-28l-4-9-5-15v-2h-55l-3 10-5 15-1 1h-28l-1-3 7-18 20-57 20-55z" transform="translate(1015,1038)"/>
<path fill="#fff" d="m0 0h27l12 3 14 7 10 8 8 10 7 13v3h-32l-7-9-8-6-9-3h-17l-10 3-10 7-7 10-4 13-1 15 3 15 6 11 8 8 11 5 4 1h16l11-4 6-4 6-7 3-4h30l1 3-7 14-8 10-12 9-13 6-14 3h-21l-16-4-14-7-10-9-7-8-7-12-4-13-2-14 1-15 3-13 8-16 9-11 10-8 12-6z" transform="translate(871,813)"/>
<path fill="#fff" d="m0 0h27l14 4 12 6 10 8 8 10 7 13v3h-32l-7-9-8-6-9-3h-17l-10 3-11 8-6 9-4 13-1 15 3 15 6 11 8 8 11 5 4 1h16l11-4 6-4 6-7 3-4h29l2 1-3 9-7 11-6 7-13 9-11 5-14 3h-21l-16-4-14-7-10-9-7-8-8-15-4-15v-24l3-13 8-16 9-11 10-8 12-6z" transform="translate(871,1037)"/>
<path fill="#fff" d="m0 0 19 1 10 3 9 5 8 7 7 14 2 8-3 2h-28l-5-10-8-5-11-1-9 3-3 3-2 10 3 8 7 5 35 12 12 7 7 7 4 8 2 7v10l-3 12-6 10-8 7-10 5-11 3h-23l-14-4-9-5-8-7-6-11-2-6v-8h29l4 9 4 5 7 3h13l9-4 4-7v-7l-3-6-6-5-12-5-23-7-13-7-7-7-4-8-2-8v-12l3-10 6-9 8-7 10-5 8-2z" transform="translate(1625,1036)"/>
<path fill="#fff" d="m0 0h79l1 1v21l-1 1h-52l1 2v32h45l1 1v20l-1 1-45 1v35h50l2 2v20l-1 1h-79l-1-1v-136z" transform="translate(1342,814)"/>
<path fill="#fff" d="m0 0h30l4 6 11 24 13 27 1 3h2l5-12 19-40 4-8h30l-1 5-15 30-12 22-16 32-1 48-1 1h-27l-1-9v-29l-1-12-15-29-10-19-14-27-5-10z" transform="translate(1449,1038)"/>
<path fill="#fff" d="m0 0h99l1 1 1 16-1 5-1 1h-35v114l-1 1h-27l-1-3v-112h-35l-1-1v-21z" transform="translate(1698,1038)"/>
<path fill="#fff" d="m0 0h99l1 1v21l-1 1h-35v114l-1 1h-27l-1-75v-40h-35l-1-1v-21z" transform="translate(1108,1038)"/>
<path fill="#131327" d="m0 0h28l12 3 8 4 8 8 6 12 2 7v23l-4 12-7 10-10 7-14 4h-28l-1-1z" transform="translate(1228,838)"/>
<path fill="#fff" d="m0 0h26l1 1v114l45 1 1 3v18l-1 1h-72l-1-1v-136z" transform="translate(1370,1038)"/>
<path fill="#00F4FE" d="m0 0 7 1 28 16 19 11 24 14 13 8 7-1 19-11 21-12 1-1 7 1 8 6-2 4-24 14-21 12-12 7-4-1-52-30-24-14-11-6-4 1-18 10-5 5-3 8-5 5-7 3-9-1-8-7-2-4v-9l3-6 7-6 3-1h8l7 1 23-13z" transform="translate(417,1018)"/>
<path fill="#00F4FE" d="m0 0 5 1 25 14 13 8 14 8 24 14 9 5h6l9-6 13-7 3-11 7-6 2-1h11l6 4 5 6 1 8-3 8-5 5-4 2h-18l-19 11-10 6-5-1-26-15-24-14-21-12-15-9-5 1-17 10-24 14h-6l-3-3-5-2-2-3 4-4 11-6 23-13 17-10z" transform="translate(603,913)"/>
<path fill="#00F4FE" d="m0 0h4l-1 69-4 4-18 10-19 11-17 10-26 15-5 3-1 2v29l7 8 1 3v10l-4 6-6 5h-13l-6-4-4-7v-12l7-8 1-1 1-39 8-5 24-14 14-8 24-14 19-11 1-1 1-55z" transform="translate(607,1014)"/>
<path fill="#00F4FE" d="m0 0h9l6 4 5 6 1 3v9l-4 6-4 4-1 39-9 6-23 13-21 12-17 10-20 12-1 54-8 6-4 2h-3v-70l4-4 22-12 17-10 45-26 2-4v-27l-7-8-2-6 1-8 4-6 5-4z" transform="translate(600,800)"/>
<path fill="#00F4FE" d="m0 0 9 1 6 4 4 6 3 8 18 10 13 8 1 2 1 104 22 13 19 11 5 5v14l-6-1-41-24-14-8-1-1-1-106-16-9-6-4h-19l-6-4-4-6v-11l4-7 6-4z" transform="translate(420,851)"/>
<path fill="#00F4FE" d="m0 0 5 2 21 12 26 15 8 6 1 105 14 8 8 5h18l7 4 4 5 1 3v9l-4 7-5 4-2 1h-12l-7-5-4-10-2-4-10-5-19-11-3-4v-105l-6-2-25-14-16-10-1-4 2-11z" transform="translate(596,962)"/>
<path fill="#00F4FE" d="m0 0h33l-2 5-24 24-3 4h-2l-2 4-7 6v3l38 38 2 3v3l-33-1-8-7-23-23-6-7-5-5-1-4 4-2v-2h2l2-4 28-28 5-6z" transform="translate(1019,837)"/>
<path fill="#00F4FE" d="m0 0h34l41 41 2 5-16 16-7 8-19 19-34 1v-3l7-8 33-33-2-4-13-13v-2l-4-2v-2l-3-1-7-8-12-12z" transform="translate(1093,837)"/>
<path fill="#fff" d="m0 0 5 2 12 7 5 5 1 36 7 9 1 3v7l-4 8-5 4-6 2-8-1-6-4-4-6-1-10 3-6 6-7v-25l-1-4-17-9-1-4 10-6z" transform="translate(577,1117)"/>
<path fill="#fff" d="m0 0h8l8 4 4 6 1 3v8l-4 7-4 5v27l5 5 14 8-1 3-11 6-2 1-10-6-10-5-2-6v-35l-4-2-4-6v-12l6-8z" transform="translate(520,800)"/>
<path fill="#fff" d="m0 0h10l8 5 3 5v11l-3 6-6 5-4 1h-8l-6-1-21 12h-2l-1 25-5-1-10-7v-24l6-5 18-10 7-4 4-11 7-6z" transform="translate(694,863)"/>
<path fill="#fff" d="m0 0h11l6 4 3 3 3 10 20 12 7 1 16-9h3v16l-5 4-14 8-2 1-32-18-6 1h-10l-6-4-4-5-1-3v-10l3-5 6-5z" transform="translate(378,921)"/>
<path fill="#fff" d="m0 0 5 2 14 8 10 6 5 2 3-1h12l6 4 4 5 1 4v7l-3 6-6 5-4 2h-9l-6-4-4-5-4-10-18-10-6-2-12 6-5 3-3-1-1-14 3-3z" transform="translate(689,1029)"/>
<path fill="#fff" d="m0 0 5 1 9 6 1 2v22l-8 6-23 13-3 7-4 7-6 4-4 1h-7l-7-4-4-6-1-3v-9l4-6 5-4 2-1h12l4 1 14-8 8-5h2z" transform="translate(452,1068)"/>
<path fill="#131327" d="m0 0 2 1 17 51v4h-26l-12-1 12-36 6-17z" transform="translate(1285,1072)"/>
<path fill="#131327" d="m0 0h2l12 34 7 21-8 1h-22l-9-1 12-36z" transform="translate(1029,1072)"/>
<path fill="#00F4FE" d="m0 0 4 2 11 28 5 15v3h-5l-5-9-20-1-1 5-3 5h-5l1-8 9-24 5-13z" transform="translate(1006,1240)"/>
<path fill="#00F4FE" d="m0 0 6 1 8 10 12 18 3 4v2h2l-1-6v-26l1-3h5l1 3v43l-5 1-5-5-12-18-7-10-2-1 1 32-2 2h-5z" transform="translate(736,1241)"/>
<path fill="#00F4FE" d="m0 0h12l8 3 7 8 2 6v13l-4 9-7 6-5 2h-15l-8-5-6-9-2-7 1-9 4-8 5-5zm2 6-8 4-4 6-1 11 3 8 6 5 10 2 8-3 5-5 2-8-1-10-4-6-4-3-3-1z" transform="translate(1319,1241)"/>
<path fill="#00F4FE" d="m0 0 5 1 1 19 22 1v-9l1-11 5-1 1 1v45l-1 1h-5l-1-1v-12l-1-7h-20l-1 18-2 2h-5v-46z" transform="translate(645,1241)"/>
<path fill="#00F4FE" d="m0 0h14l8 4 5 6 1 4-5 1-9-7-2-1h-10l-7 4-3 5-1 4v7l3 8 5 4 6 2 9-1 10-8 3 1v5l-8 7-4 2h-16l-8-5-6-9-1-3v-13l4-8 4-5z" transform="translate(1417,1241)"/>
<path fill="#00F4FE" d="m0 0h14l8 4 5 6-1 5-6-2-5-5-3-1h-10l-7 4-3 5-1 4v7l3 8 5 4 10 2 8-3 5-5 4-1 1 5-6 7-7 3h-15l-9-6-5-8-2-7 1-9 4-8 5-5z" transform="translate(906,1241)"/>
<path fill="#00F4FE" d="m0 0h12l9 4 5 6 1 4-5 1-9-7-2-1h-10l-7 4-3 5-1 4v7l3 8 5 4 6 2 8-1 6-4 5-4 3 1v5l-8 7-4 2h-16l-8-5-6-9-1-3v-13l4-8 4-5z" transform="translate(562,1241)"/>
<path fill="#00F4FE" d="m0 0 9 1 6 4 3 4v4h-5l-6-5h-9l-3 4 1 5 5 3 12 4 5 5 1 2v9l-6 7-3 1h-13l-6-4-3-4v-5l3-1 5 4v2l5 2h7l4-4-1-6-5-3-10-3-7-6-1-2v-8l4-6z" transform="translate(1230,1240)"/>
<path fill="#00F4FE" d="m0 0h23l1 5-1 1-17 1v13l16 1v5l-16 1v12l1 2h16l1 5-1 1h-23l-1-1v-45z" transform="translate(1564,1241)"/>
<path fill="#00F4FE" d="m0 0h23l1 5-2 1h-17l1 14 15 1 1 5-16 1v14l18 1 1 4-2 1h-23l-2-4 1-42z" transform="translate(467,1241)"/>
<path fill="#00F4FE" d="m0 0 6 2 6 10 4 9 3-1 9-17 4-3 3 1-2 6-8 16-3 7-1 17-6 1-1-1-1-17-10-21-3-6z" transform="translate(1722,1240)"/>
<path fill="#00F4FE" d="m0 0h30l1 4-1 2h-11l-1 40-1 1h-5l-1-4v-37h-11l-1-5z" transform="translate(1641,1241)"/>
<path fill="#00F4FE" d="m0 0h31l1 4-2 2h-11v40l-1 1h-5v-41h-11l-3-3z" transform="translate(381,1241)"/>
<path fill="#00F4FE" d="m0 0h6l1 17v25h15l1 4-3 1h-20z" transform="translate(1080,1241)"/>
<path fill="#00F4FE" d="m0 0h6l1 4v42l-7 1z" transform="translate(1500,1241)"/>
<path fill="#00F4FE" d="m0 0 5 1 1 44-2 2h-5v-46z" transform="translate(830,1241)"/>
<path fill="#131327" d="m0 0h2l4 9 3 12-2 1-13-1 2-9z" transform="translate(1e3 1251)"/>
<path fill="#131327" d="m0 0 6 2 2 5-3 5-1 1h-6l-3-3v-7z" transform="translate(422,861)"/>
<path fill="#131327" d="m0 0h6l3 4v6l-4 3-6-1-2-3v-6z" transform="translate(380,931)"/>
<path fill="#131327" d="m0 0 6 1 3 4-1 6-2 2h-6l-3-3-1-4 3-5z" transform="translate(374,1044)"/>
<path fill="#131327" d="m0 0h7l3 4-1 5-3 3-7-1-3-5 2-5z" transform="translate(601,811)"/>
<path fill="#131327" d="m0 0 5 1 2 2 1 5-3 5-7-1-3-4 1-6z" transform="translate(737,942)"/>
<path fill="#131327" d="m0 0 5 1 3 3v5l-4 4-6-1-3-6 2-5z" transform="translate(415,1114)"/>
<path fill="#131327" d="m0 0 7 1 3 4-2 6-4 2-4-1-3-5 1-5z" transform="translate(729,1056)"/>
<path fill="#131327" d="m0 0 5 1 2 2v7l-4 3-6-1-2-3 1-6z" transform="translate(691,1125)"/>
<path fill="#131327" d="m0 0h6l3 3v6l-3 3-7-1-2-3 1-6z" transform="translate(508,1177)"/>
<path fill="#131327" d="m0 0h5l3 5-2 6-1 1h-6l-4-5 1-4z" transform="translate(697,873)"/>
<path fill="#131327" d="m0 0h5l3 3 1 5-5 4-5-1-3-3v-5z" transform="translate(522,811)"/>
<path fill="#131327" d="m0 0h6l3 4v5l-4 3-5-1-3-3 1-6z" transform="translate(588,1177)"/>
</svg>